<?xml version="1.0" encoding="utf-8"?>
<!-- Generator: Adobe Illustrator 25.0.0, SVG Export Plug-In . SVG Version: 6.00 Build 0)  -->
<svg version="1.1" id="Capa_1" xmlns="http://www.w3.org/2000/svg" xmlns:xlink="http://www.w3.org/1999/xlink" x="0px" y="0px"
	 viewBox="0 0 400 400" style="enable-background:new 0 0 400 400;" xml:space="preserve">
<style type="text/css">
	.st0{fill:#F9F9F9;}
	.st1{fill:#E5A56C;}
	.st2{fill:#C97F32;}
</style>
<g>
	<g>
		<circle class="st0" cx="200.1" cy="200" r="173.9"/>
		<path class="st1" d="M200,0C89.7,0,0,89.7,0,200s89.7,200,200,200s200-89.7,200-200S310.3,0,200,0z M200,373.8
			c-95.8,0-173.8-78-173.8-173.8S104.1,26.2,200,26.2s173.8,78,173.8,173.8S295.8,373.8,200,373.8z"/>
		<path class="st2" d="M272.4,134.5L169.3,237.6l-41.7-41.7c-5.1-5.1-13.4-5.1-18.5,0s-5.1,13.4,0,18.5l51,51
			c2.6,2.6,5.9,3.8,9.3,3.8s6.7-1.3,9.3-3.8l0,0L291,153.1c5.1-5.1,5.1-13.4,0-18.5C285.8,129.4,277.5,129.4,272.4,134.5z"/>
	</g>
</g>
</svg>
