<?xml version="1.0" encoding="UTF-8"?>
<svg width="618px" height="341px" viewBox="0 0 618 341" version="1.1" xmlns="http://www.w3.org/2000/svg" xmlns:xlink="http://www.w3.org/1999/xlink">
    <!-- Generator: sketchtool 64 (101010) - https://sketch.com -->
    <title>6AE6D71F-197B-4CF2-A283-A0ACF198C887</title>
    <desc>Created with sketchtool.</desc>
    <defs>
        <path d="M51.6379479,0.307431113 C71.7347471,0.307431113 88.6551262,15.8961076 89.6130465,36.1128077 L89.6152995,36.1703805 C89.6412096,36.743098 89.6558544,37.3158154 89.6558544,37.8881566 C89.6558544,38.3434707 89.6472177,38.797656 89.6299443,39.2529701 L89.6299443,49.9761824 C97.6429042,50.8796611 103.925149,57.7398528 103.925149,65.9998532 L103.925149,124.053158 C103.925149,132.921623 96.6834819,140.180309 87.8323887,140.180309 L16.2226857,140.180309 C7.37196811,140.180309 0.130301189,132.921623 0.130301189,124.053158 L0.130301189,65.9998532 C0.130301189,58.0190619 5.99460569,51.3443825 13.618915,50.087565 L13.618915,36.4416875 L13.6343108,36.1128077 C14.5929821,15.8727775 31.5587977,0.307431113 51.6379479,0.307431113 Z M52.0281005,67.1577058 C43.0936447,67.1577058 35.8504757,74.4156388 35.8504757,83.3687704 C35.8504757,89.5941563 39.3535875,95.0003532 44.4927865,97.7164337 L44.4927865,97.7164337 L44.4927865,124.509225 L59.5641655,124.509225 L59.5641655,97.7156811 C64.702989,95.0003532 68.2057253,89.5941563 68.2057253,83.3687704 C68.2057253,74.4156388 60.9625563,67.1577058 52.0281005,67.1577058 Z M51.6379479,14.2031669 C38.9604309,14.2031669 28.0936122,23.9382346 27.4864161,36.7709436 L27.4864161,49.8745833 L75.7628187,49.8745833 L75.7628187,38.9666114 C75.7789655,38.6091333 75.7891043,38.2490212 75.7891043,37.8881566 C75.7891043,37.526163 75.7789655,37.1671798 75.7628187,36.8100781 L75.7628187,36.7709436 L75.7616922,36.7709436 C75.1661369,24.2099179 64.5937163,14.2031669 51.6379479,14.2031669 Z" id="path-1"></path>
        <path d="M168.601601,0.158056266 C168.823351,0.158056266 169.003758,0.339820972 169.003758,0.561099744 L169.003758,101.92597 C169.003758,102.146496 168.823351,102.327885 168.601601,102.327885 L0.725386412,102.327885 C0.503636161,102.327885 0.323229178,102.146496 0.323229178,101.92597 L0.323229178,0.561099744 C0.323229178,0.339820972 0.503636161,0.158056266 0.725386412,0.158056266" id="path-3"></path>
    </defs>
    <g id="Website---Desktop" stroke="none" stroke-width="1" fill="none" fill-rule="evenodd">
        <g id="Solution--Multi-Factor-Authentication" transform="translate(-800.000000, -2029.000000)">
            <g id="Group-7" transform="translate(799.387755, 2029.000000)">
                <path d="M54.104151,314.662188 C72.3116492,321.820953 77.1343781,327.546459 89.6393274,306.763096 C99.5796816,290.240759 110.29121,285.255957 121.158251,285.568189 C136.12128,285.99779 147.446643,294.661662 156.940544,291.379465 C168.033094,287.543902 172.369503,269.952077 181.267829,258.535672 C188.288738,249.528345 195.989827,248.049193 206.126779,247.282908 C220.820475,246.172039 238.165804,271.097178 251.239852,242.27403 C257.040395,229.48531 267.68284,211.522568 280.543857,214.167887 C293.404873,216.814335 298.03983,223.312146 305.462456,229.48531 C312.882039,235.659227 323.366232,229.044423 329.924559,223.311393 C338.996658,215.379573 353.796261,203.693446 362.959658,217.137853 C409.741376,285.775842 380.181734,190.962281 443.04733,266.472007 C456.754386,282.936412 456.754386,282.936412 456.754386,282.936412 C480.041772,308.955115 496.892564,259.743596 518.296144,291.087923 C531.914943,311.032774 539.733199,322.837775 545.783294,322.397265 C551.836432,321.956002 559.402094,313.137142 574.031271,320.191704 C583.782028,324.896751 590.309019,331.499516 593.612245,340 C198.278912,339.941065 0.612245,339.911597 0.612245,339.911597 C0.612245,339.911597 35.8963485,307.503048 54.104151,314.662188 Z" id="Fill-7" fill="#FFF1CB"></path>
                <path d="M543.070375,186.218697 C545.403765,195.491324 553.62103,202.435154 563.156194,203.184789 C578.888841,204.426838 591.000067,190.084469 587.15464,174.776684 C584.817517,165.508911 576.603985,158.563961 567.072555,157.815446 C551.336175,156.574143 539.217482,170.910912 543.070375,186.218697 Z M515.379573,176.348379 L519.743945,175.981401 C521.565855,175.826472 523.085359,174.482505 523.417633,172.684575 C524.067249,169.206687 525.142475,165.872529 526.594777,162.731379 C527.360129,161.065607 526.908384,159.092215 525.508351,157.913257 L522.166937,155.081967 C520.430895,153.618162 520.206889,151.023933 521.670391,149.287975 L527.087589,142.882852 C528.551091,141.148014 531.149554,140.93298 532.885596,142.398651 L536.230743,145.223968 C537.630777,146.407406 539.650559,146.525376 541.162596,145.490895 C544.018665,143.532809 547.128606,141.917436 550.44762,140.696292 C552.164995,140.065001 553.232754,138.34995 553.07595,136.520661 L552.713808,132.159488 C552.51967,129.89565 554.207178,127.909939 556.465899,127.71693 L564.825034,127.015081 C567.087489,126.822072 569.07367,128.504271 569.267808,130.766989 L569.633684,135.128909 C569.790487,136.952597 571.130787,138.470533 572.926563,138.806898 C576.402381,139.454989 579.740061,140.531656 582.87987,141.979781 C584.544977,142.753309 586.516225,142.295613 587.703454,140.894154 L590.529655,137.549169 C591.993157,135.814332 594.587887,135.594817 596.320195,137.065714 L602.730484,142.474435 C604.466525,143.940479 604.679331,146.535456 603.215829,148.271413 L600.389627,151.616398 C599.206132,153.01711 599.086662,155.040528 600.124554,156.548011 C602.077134,159.404687 603.693707,162.515225 604.922003,165.832583 C605.545485,167.552488 607.266593,168.619075 609.092237,168.468999 L613.452876,168.100154 C615.715331,167.907519 617.705245,169.588971 617.89565,171.852809 L618.597534,180.208551 C618.787938,182.473509 617.107898,184.459594 614.845443,184.652602 L610.484804,185.01958 C608.65916,185.174883 607.147124,186.512503 606.803649,188.317153 C606.1615,191.788321 605.08254,195.123226 603.633972,198.262882 C602.85742,199.929402 603.316631,201.90354 604.712931,203.088471 L608.061812,205.912295 C609.797854,207.377219 610.014393,209.973689 608.547157,211.708153 L603.14116,218.112156 C601.673925,219.849234 599.075462,220.062029 597.33942,218.598971 L594.001739,215.77104 C592.594239,214.587229 590.574456,214.468885 589.06242,215.50934 C586.206351,217.462199 583.096409,219.084292 579.784862,220.299463 C578.063754,220.928514 576.988528,222.651778 577.141598,224.476214 L577.511207,228.835894 C577.705345,231.100105 576.021571,233.091043 573.759117,233.278825 L565.399981,233.985901 C563.14126,234.17219 561.151345,232.490737 560.957207,230.22802 L560.595065,225.865726 C560.441995,224.042411 559.097962,222.530075 557.290985,222.188856 C553.822635,221.541886 550.488688,220.463352 547.348878,219.015974 C545.683772,218.246926 543.712524,218.698649 542.525295,220.099734 L539.702827,223.445092 C538.231858,225.181796 535.637129,225.400938 533.901087,223.934894 L527.494532,218.5202 C525.762223,217.056022 525.541951,214.460672 527.009187,212.724342 L529.839122,209.37861 C531.018884,207.977898 531.138353,205.960454 530.104195,204.445131 C528.140414,201.592934 526.523842,198.483144 525.310479,195.163918 C524.675797,193.44476 522.965889,192.375187 521.136512,192.531236 L516.77214,192.894481 C514.505951,193.088609 512.516037,191.406037 512.329366,189.142946 L511.627482,180.786084 C511.433344,178.523366 513.117118,176.535415 515.379573,176.348379 L515.379573,176.348379 Z" id="Fill-23" fill="#FFF1CB"></path>
                <path d="M558.65531,149.693873 C550.726726,151.412003 543.864012,156.167714 539.469631,162.990491 C535.082731,169.802048 533.590511,178.040019 535.307124,185.956355 C537.023738,193.887277 541.780889,200.749698 548.602463,205.143008 C555.412818,209.528465 563.651815,211.020702 571.56918,209.306686 C579.497764,207.588183 586.360478,202.833594 590.754859,196.009321 C595.141759,189.198138 596.633979,180.959792 594.917366,173.043082 C593.200752,165.112534 588.443601,158.250862 581.622027,153.856803 C574.811672,149.471721 566.572675,147.978736 558.65531,149.693873 Z M580.615994,155.421969 C587.02618,159.547126 591.487879,165.988429 593.103515,173.435776 C594.711671,180.870782 593.309209,188.607975 589.191581,195.005146 C585.066473,201.412416 578.622628,205.876785 571.17649,207.49057 C563.741572,209.100615 556.007462,207.698137 549.608496,203.57859 C543.20205,199.45306 538.736611,193.011009 537.120975,185.563662 C535.512819,178.128656 536.915281,170.392211 541.032909,163.995039 C545.161757,157.588518 551.601862,153.123775 559.048,151.510363 C566.482918,149.899944 574.220768,151.302423 580.615994,155.421969 L580.615994,155.421969 Z" id="Fill-24" fill="#BD3E19"></path>
                <path d="M580.584337,149.642618 C577.529405,148.083402 574.268565,146.996348 570.921618,146.404934 C570.187835,146.274875 569.454053,146.170903 568.716527,146.088172 L568.843815,145 C569.603804,145.084594 570.363794,145.192666 571.112551,145.326079 C574.534374,145.931281 577.866346,147.036223 580.988666,148.618544 L580.584337,149.642618 Z M541.75376,154.881866 C536.621026,159.575911 533.202947,165.581725 531.660506,172.009391 L530.612245,171.65499 C532.21833,165.050309 535.744979,158.884997 541.023721,154.062384 L541.75376,154.881866 Z M567.282655,213.92189 C573.276461,213.51718 579.240317,211.536856 584.522802,207.864277 C584.728711,207.720802 584.934619,207.574346 585.136784,207.428263 L585.612245,208.438175 L585.155503,208.761646 C579.764447,212.508012 573.692022,214.54908 567.578415,215 L567.282655,213.92189 L567.282655,213.92189 Z" id="Fill-25" fill="#BD3E19"></path>
                <path d="M473.067832,164.426679 C476.989309,169.722565 484.04497,171.991105 490.317086,169.968501 C500.668138,166.631861 504.623357,154.315534 498.156292,145.571662 C494.234814,140.279525 487.179153,138.008735 480.910787,140.031714 C470.559735,143.369104 466.600767,155.683931 473.067832,164.426679 Z M452.838104,165.400678 L455.522405,164.023658 C456.643363,163.446306 457.254453,162.191505 456.995771,160.959197 C456.497151,158.572187 456.309699,156.165307 456.410923,153.783171 C456.45966,152.520871 455.65737,151.381915 454.453933,150.998388 L451.582182,150.069753 C450.09382,149.59325 449.269035,147.998786 449.74891,146.509295 L451.518448,141.007212 C451.994574,139.516971 453.595407,138.698557 455.083769,139.178059 L457.955521,140.100696 C459.158957,140.486472 460.478613,140.031714 461.168433,138.976361 C462.473093,136.980375 464.032687,135.134351 465.828468,133.486275 C466.758226,132.632995 466.986917,131.259724 466.405818,130.135763 L465.033676,127.452205 C464.313863,126.060563 464.868719,124.352878 466.255857,123.636438 L471.399516,120.997118 C472.786655,120.280677 474.496209,120.831036 475.212273,122.221927 L476.591913,124.905111 C477.169263,126.026822 478.421436,126.642413 479.654865,126.38523 C482.039243,125.885483 484.446116,125.696907 486.826745,125.796256 C488.090166,125.851367 489.229869,125.042326 489.616018,123.838886 L490.538278,120.965626 C491.018153,119.476135 492.611488,118.655846 494.103599,119.138347 L499.603415,120.904517 C501.095526,121.382518 501.912813,122.979607 501.432938,124.469848 L500.510679,127.342358 C500.124529,128.546173 500.578161,129.866208 501.639135,130.553781 C503.629866,131.861819 505.478134,133.419542 507.127704,135.211581 C507.978732,136.143591 509.354624,136.371532 510.475581,135.79718 L513.159882,134.418285 C514.550769,133.702219 516.256575,134.252203 516.976387,135.644219 L519.615699,140.784145 C520.328013,142.177661 519.780656,143.883097 518.389769,144.599912 L515.705468,145.977307 C514.58451,146.555408 513.969671,147.804586 514.228353,149.043267 C514.726973,151.423904 514.914424,153.831908 514.81695,156.21292 C514.760714,157.478594 515.570503,158.615676 516.770191,159.004451 L519.645691,159.924839 C521.134053,160.402841 521.955089,162.000679 521.475214,163.490545 L519.709425,168.989628 C519.22955,170.480994 517.632466,171.298284 516.140355,170.821406 L513.272352,169.89577 C512.065167,169.510369 510.74926,169.964377 510.055691,171.024229 C508.751031,173.017966 507.195186,174.866989 505.399404,176.510566 C504.469647,177.363096 504.237207,178.742366 504.814557,179.864077 L506.194197,182.546886 C506.910261,183.937777 506.359154,185.647337 504.968267,186.361528 L499.828357,189.004597 C498.437469,189.715789 496.727915,189.167305 496.011851,187.775663 L494.63596,185.09173 C494.05861,183.969644 492.806437,183.358551 491.56551,183.614236 C489.184881,184.112857 486.778008,184.300684 484.397379,184.202084 C483.137707,184.148098 481.998004,184.953765 481.611855,186.157205 L480.689595,189.029715 C480.20972,190.522206 478.612636,191.341745 477.120525,190.863743 L471.620709,189.093824 C470.132347,188.615822 469.311311,187.019858 469.791186,185.528118 L470.713445,182.654483 C471.099595,181.452168 470.645963,180.135507 469.588738,179.440811 C467.590509,178.139146 465.74599,176.581422 464.100169,174.78526 C463.245392,173.856624 461.873249,173.623809 460.752292,174.20266 L458.064242,175.579306 C456.673355,176.296121 454.9638,175.747262 454.247737,174.353746 L451.612174,169.213446 C450.892362,167.822554 451.443468,166.114494 452.838104,165.400678 L452.838104,165.400678 Z" id="Fill-26" fill="#FFF1CB"></path>
                <path d="M481.560214,133.489098 C475.971394,134.700313 471.131786,138.052441 468.036556,142.862491 C464.94511,147.664218 463.893185,153.47056 465.100249,159.051763 C466.311097,164.641669 469.663633,169.479342 474.472969,172.576436 C479.274738,175.667855 485.083024,176.720148 490.664276,175.510446 C496.253096,174.299609 501.092704,170.94786 504.187934,166.137809 C507.27938,161.335705 508.331305,155.529362 507.124241,149.948538 C505.913393,144.357497 502.560857,139.520581 497.747737,136.423486 C492.949752,133.332446 487.141466,132.280153 481.560214,133.489098 Z M497.040148,137.526483 C501.558124,140.434763 504.706329,144.975781 505.841499,150.225138 C506.976668,155.466171 505.989071,160.920236 503.086819,165.429848 C500.177001,169.946649 495.636321,173.093312 490.388052,174.230743 C485.143567,175.365902 479.690967,174.377557 475.180558,171.473439 C470.666366,168.564781 467.518161,164.024142 466.382991,158.774784 C465.244038,153.532994 466.235419,148.080821 469.137671,143.570074 C472.047489,139.05403 476.588169,135.906988 481.836438,134.768801 C487.077139,133.633642 492.533523,134.623501 497.040148,137.526483 L497.040148,137.526483 Z" id="Fill-27" fill="#BD3E19"></path>
                <path d="M497.13745,133.250218 C495.028814,132.158076 492.775395,131.398032 490.462577,130.98319 C489.957692,130.892584 489.449095,130.8192 488.940498,130.761542 L489.029596,130 C489.553042,130.059156 490.076489,130.134786 490.596223,130.228388 C492.957302,130.651466 495.258982,131.424989 497.419592,132.533605 L497.13745,133.250218 Z M470.311737,136.917524 C466.766407,140.203684 464.401616,144.406765 463.336161,148.907124 L462.612245,148.65777 C463.722249,144.03498 466.157575,139.719578 469.806852,136.343559 L470.311737,136.917524 Z M487.949291,178.244823 C492.088603,177.961772 496.209353,176.57647 499.85863,174.005051 C500.003413,173.904335 500.144484,173.802123 500.281842,173.699535 L500.612245,174.406039 L500.296692,174.632929 C496.573167,177.255643 492.378169,178.68475 488.153472,179 L487.949291,178.244823 L487.949291,178.244823 Z" id="Fill-28" fill="#BD3E19"></path>
                <path d="M52.2200929,140 L136.004023,140 C141.838583,140 146.612245,144.790481 146.612245,150.64764 L146.612245,328.351984 C146.612245,334.209144 141.838583,339 136.004023,339 L52.2200929,339 C46.3859075,339 41.612245,334.209144 41.612245,328.351984 L41.612245,150.64764 C41.612245,144.790481 46.3859075,140 52.2200929,140" id="Fill-29" fill="#F8CA81"></path>
                <polygon id="Fill-30" fill="#FFF1CB" points="48.612245 304 139.612245 304 139.612245 154 48.612245 154"></polygon>
                <path d="M50.1066442,302.521627 L139.118222,302.521627 L139.118222,285.907739 L139.118222,288.920318 L139.118222,282.072902 L119.308717,282.072902 C118.941296,283.740613 117.439235,284.998317 115.655962,284.998317 L72.5419318,284.998317 C70.7579055,284.998317 69.2562215,283.740613 68.8888002,282.072902 L50.1066442,282.072902 L50.1066442,288.920318 L50.1066442,285.907739 L50.1066442,302.521627 Z M72.5419318,277.565817 L115.655962,277.565817 C117.102307,277.565817 118.364188,278.392939 118.984965,279.594529 L139.118222,279.594529 L139.118222,248.846247 L119.298176,248.846247 C118.912685,250.489268 117.421542,251.722656 115.655962,251.722656 L72.5419318,251.722656 C70.775599,251.722656 69.2852086,250.489268 68.8997174,248.846247 L50.1066442,248.846247 L50.1066442,279.594529 L69.212929,279.594529 C69.8337054,278.392939 71.0952104,277.565817 72.5419318,277.565817 Z M72.5419318,244.290531 L115.655962,244.290531 C117.121506,244.290531 118.397693,245.140472 119.009434,246.367875 L139.118222,246.367875 L139.118222,215.619593 L119.12463,215.619593 C118.569357,216.982792 117.220514,217.951695 115.655962,217.951695 L72.5419318,217.951695 C70.9766266,217.951695 69.6277838,216.982792 69.0728873,215.619593 L50.1066442,215.619593 L50.1066442,246.367875 L69.1884594,246.367875 C69.8005773,245.140472 71.0756346,244.290531 72.5419318,244.290531 Z M72.5419318,210.519944 L115.655962,210.519944 C117.329687,210.519944 118.755326,211.62614 119.228532,213.14122 L139.118222,213.14122 L139.118222,182.391817 L119.27446,182.391817 C118.853205,183.986953 117.386908,185.170961 115.655962,185.170961 L72.5419318,185.170961 C70.8106094,185.170961 69.3443123,183.986953 68.9238106,182.391817 L50.1066442,182.391817 L50.1066442,213.14122 L68.9697383,213.14122 C69.4425674,211.62614 70.8678308,210.519944 72.5419318,210.519944 Z M72.5419318,177.739584 L115.655962,177.739584 C117.159905,177.739584 118.463949,178.633668 119.056115,179.913444 L139.118222,179.913444 L139.118222,155.478373 L50.1066442,155.478373 L50.1066442,179.913444 L69.1417788,179.913444 C69.733568,178.633668 71.0376125,177.739584 72.5419318,177.739584 Z M47.612245,169.61314 L47.612245,153 L141.612245,153 L141.612245,305 L47.612245,305 L47.612245,270.533224 L47.612245,279.594529 L47.612245,253.920084 L47.612245,262.981015 L47.612245,237.307318 L47.612245,246.367875 L47.612245,220.69343 L47.612245,229.754361 L47.612245,204.079542 L47.612245,213.14122 L47.612245,187.466028 L47.612245,196.52808 L47.612245,169.61314 L47.612245,169.61314 Z" id="Fill-31" fill="#BD3E19"></path>
                <polygon id="Fill-32" fill="#BD3E19" points="50.612245 324 62.612245 324 62.612245 312 50.612245 312"></polygon>
                <polygon id="Fill-33" fill="#BD3E19" points="70.612245 321 76.612245 321 76.612245 315 70.612245 315"></polygon>
                <polygon id="Fill-34" fill="#BD3E19" points="80.612245 321 86.612245 321 86.612245 315 80.612245 315"></polygon>
                <polygon id="Fill-35" fill="#BD3E19" points="90.612245 321 96.612245 321 96.612245 315 90.612245 315"></polygon>
                <polygon id="Fill-36" fill="#BD3E19" points="100.612245 321 106.612245 321 106.612245 315 100.612245 315"></polygon>
                <polygon id="Fill-37" fill="#BD3E19" points="110.612245 321 116.612245 321 116.612245 315 110.612245 315"></polygon>
                <path d="M133.612245,309 C135.821311,309 137.612245,310.790934 137.612245,313 C137.612245,315.209436 135.821311,317 133.612245,317 C131.402809,317 129.612245,315.209436 129.612245,313 C129.612245,310.790934 131.402809,309 133.612245,309" id="Fill-38" fill="#D1232A"></path>
                <path d="M133.112245,321 C134.492723,321 135.612245,322.119057 135.612245,323.49981 C135.612245,324.881704 134.492723,326 133.112245,326 C131.731767,326 130.612245,324.881704 130.612245,323.49981 C130.612245,322.119057 131.731767,321 133.112245,321" id="Fill-39" fill="#0C8E45"></path>
                <polygon id="Fill-40" fill="#FFD695" points="66.612245 200 94.612245 200 94.612245 195 66.612245 195"></polygon>
                <polygon id="Fill-41" fill="#FFD695" points="66.612245 169 94.612245 169 94.612245 164 66.612245 164"></polygon>
                <polygon id="Fill-42" fill="#FFD695" points="66.612245 297 94.612245 297 94.612245 292 66.612245 292"></polygon>
                <polygon id="Fill-43" fill="#FFD695" points="66.612245 266 94.612245 266 94.612245 261 66.612245 261"></polygon>
                <polygon id="Fill-44" fill="#FFD695" points="66.612245 233 94.612245 233 94.612245 228 66.612245 228"></polygon>
                <path d="M273.175514,339 C210.535722,298.829182 170.219855,218.183666 176.197819,143.714548 L177.610105,126.131551 L194.984102,123.388739 C225.466401,118.576985 257.314921,119.674561 274.643602,94.2034435 L278.864355,88 L285.613066,88 L296.578784,94.2034435 C323.502468,109.431273 345.838378,118.303906 376.439772,123.421418 L393.626138,126.296075 L395.026814,143.714548 C401.004029,218.183666 360.687788,298.829182 298.046872,339 L273.175514,339" id="Fill-45" fill="#BD3E19"></path>
                <path d="M267.178466,339 C204.535272,298.829182 164.219518,218.183666 170.197896,143.714548 L171.609441,126.131551 L188.983551,123.38949 C219.465299,118.577361 241.865021,109.349762 268.642819,94.2034435 L279.612353,88 L290.578142,94.2034435 C317.505746,109.431273 339.838055,118.303906 370.439648,123.422169 L387.626126,126.296075 L389.02681,143.714548 C395.004064,218.183666 354.687561,298.829182 292.04624,339 L267.178466,339" id="Fill-46" fill="#FFD695"></path>
                <path d="M279.611941,111 C248.599028,128.497691 223.664872,138.492993 189.152172,143.927091 C183.475665,214.466747 223.165814,289.1336 279.611941,325 C336.058068,289.1336 375.74634,214.466747 370.072835,143.927091 C334.909858,138.061614 310.621101,128.497691 279.611941,111" id="Fill-47" fill="#BD3E19"></path>
                <path d="M194.824542,148.202399 C193.45906,174.991381 198.749413,202.039246 208.709139,226.862367 C222.909483,262.256497 247.70743,295.606238 279.612493,317 C311.517557,295.606238 336.311749,262.256873 350.514721,226.86387 C360.478953,202.028349 365.768931,174.965079 364.398567,148.16257 C349.771346,145.503098 335.53083,141.863325 321.523087,136.698057 C306.9672,131.32989 293.147179,124.518139 279.612493,117 C265.398258,124.897634 250.868652,132.036277 235.539353,137.560375 C222.229933,142.357421 208.707262,145.778514 194.824542,148.202399" id="Fill-48" fill="#F8E5B1"></path>
                <path d="M194.824541,148.202399 C193.459063,174.991381 198.749401,202.039246 208.709473,226.862367 C222.913155,262.255746 247.707274,295.606238 279.612245,317 L279.612245,117 C265.398051,124.897634 250.868487,132.036277 235.539234,137.560375 C222.229852,142.357421 208.707221,145.778514 194.824541,148.202399" id="Fill-49" fill="#FFF1CB"></path>
                <path d="M131.022331,250.257984 L179.393977,250.257984 L179.393977,239.418715 C179.410532,239.06309 179.419939,238.705969 179.419939,238.346604 C179.419939,237.98724 179.410532,237.630119 179.393977,237.275616 L179.393977,237.236726 L179.393225,237.236726 C178.796495,224.754327 168.203592,214.809168 155.221511,214.809168 C142.519359,214.809168 131.631101,224.483588 131.022331,237.236726 L131.022331,250.257984 Z M193.288461,250.360072 C201.317606,251.257174 207.612245,258.074254 207.612245,266.28317 L207.612245,323.976309 C207.612245,332.790274 200.356291,340 191.487736,340 L119.736378,340 C110.868575,340 103.612245,332.790274 103.612245,323.976309 L103.612245,266.28317 C103.612245,258.352098 109.488495,251.719375 117.12747,250.470387 L117.12747,236.909147 L117.143273,236.58269 C118.103835,216.468377 135.103123,201 155.221511,201 C175.357959,201 192.31172,216.491562 193.27153,236.58269 L193.274164,236.63953 C193.300125,237.208305 193.314799,237.777829 193.314799,238.346604 C193.314799,238.799082 193.305769,239.251186 193.288461,239.702915 L193.288461,250.360072 L193.288461,250.360072 Z" id="Fill-50" fill="#BD3E19"></path>
                <path d="M135.022054,248.257828 L183.393875,248.257828 L183.393875,237.417927 C183.410807,237.063428 183.420589,236.705563 183.420589,236.34695 C183.420589,235.987216 183.410807,235.629725 183.393875,235.2756 L183.393875,235.23671 L183.393123,235.23671 C182.796767,222.753697 172.203826,212.809019 159.221698,212.809019 C146.519123,212.809019 135.631202,222.484083 135.022054,235.23671 L135.022054,248.257828 Z M159.612621,265.433469 C168.564736,265.433469 175.822221,272.645735 175.822221,281.543742 C175.822221,287.730278 172.312562,293.10199 167.163581,295.800373 L167.163581,322.426711 L152.062414,322.426711 L152.062414,295.801121 C146.913057,293.10199 143.403021,287.730278 143.403021,281.543742 C143.403021,272.645735 150.660883,265.433469 159.612621,265.433469 Z M197.289162,248.359167 C205.31796,249.256633 211.612245,256.074014 211.612245,264.282468 L211.612245,321.97349 C211.612245,330.786612 204.356641,338 195.487677,338 L123.736813,338 C114.868225,338 107.612245,330.786612 107.612245,321.97349 L107.612245,264.282468 C107.612245,256.351481 113.488517,249.719203 121.127519,248.470228 L121.127519,234.90876 L121.143322,234.581933 C122.103888,214.468211 139.103237,199 159.221698,199 C179.358595,199 196.312041,214.491395 197.271855,234.581933 L197.274112,234.639894 C197.30045,235.20829 197.315123,235.777433 197.315123,236.34695 C197.315123,236.798675 197.306093,237.250774 197.289162,237.703247 L197.289162,248.359167 L197.289162,248.359167 Z" id="Fill-51" fill="#BD3E19"></path>
                <g id="Group-54" transform="translate(101.612245, 199.000000)">
                    <mask id="mask-2" fill="white">
                        <use xlink:href="#path-1"></use>
                    </mask>
                    <g id="Clip-53"></g>
                    <path d="M27.4864161,49.8745833 L75.7628187,49.8745833 L75.7628187,38.9666114 C75.7789655,38.6091333 75.7891043,38.2490212 75.7891043,37.8881566 C75.7891043,37.526163 75.7789655,37.1671798 75.7628187,36.8100781 L75.7628187,36.7709436 L75.7616922,36.7709436 C75.1661369,24.2099179 64.5937163,14.2031669 51.6379479,14.2031669 C38.9604309,14.2031669 28.0936122,23.9382346 27.4864161,36.7709436 L27.4864161,49.8745833 Z M52.0281005,67.1577058 C60.9625563,67.1577058 68.2057253,74.4156388 68.2057253,83.3687704 C68.2057253,89.5941563 64.702989,95.0003532 59.5641655,97.7156811 L59.5641655,124.509225 L44.4927865,124.509225 L44.4927865,97.7164337 C39.3535875,95.0003532 35.8504757,89.5941563 35.8504757,83.3687704 C35.8504757,74.4156388 43.0936447,67.1577058 52.0281005,67.1577058 Z M89.6299443,49.9761824 C97.6429042,50.8796611 103.925149,57.7398528 103.925149,65.9998532 L103.925149,124.053158 C103.925149,132.921623 96.6834819,140.180309 87.8323887,140.180309 L16.2226857,140.180309 C7.37196811,140.180309 0.130301189,132.921623 0.130301189,124.053158 L0.130301189,65.9998532 C0.130301189,58.0190619 5.99460569,51.3443825 13.618915,50.087565 L13.618915,36.4416875 L13.6343108,36.1128077 C14.5929821,15.8727775 31.5587977,0.307431113 51.6379479,0.307431113 C71.7347471,0.307431113 88.6551262,15.8961076 89.6130465,36.1128077 L89.6152995,36.1703805 C89.6412096,36.743098 89.6558544,37.3158154 89.6558544,37.8881566 C89.6558544,38.3434707 89.6472177,38.797656 89.6299443,39.2529701 L89.6299443,49.9761824 L89.6299443,49.9761824 Z" id="Fill-52" fill="#FFD695" mask="url(#mask-2)"></path>
                </g>
                <path d="M279.612245,154 C308.329786,154 331.612245,177.280579 331.612245,206 C331.612245,234.719045 308.329786,258 279.612245,258 C250.890943,258 227.612245,234.719045 227.612245,206 C227.612245,177.280579 250.890943,154 279.612245,154" id="Fill-55" fill="#BD3E19"></path>
                <path d="M255.550242,206.693353 C253.928535,204.393621 254.463246,201.202125 256.740162,199.565831 C259.019589,197.92979 262.180159,198.467788 263.801865,200.767266 L270.67529,210.483667 L295.35736,190.145418 C297.52633,188.365184 300.714514,188.69665 302.476802,190.885387 C304.2416,193.075137 303.91274,196.293242 301.74377,198.073475 L272.997393,221.760338 C272.881915,221.862717 272.758906,221.960535 272.628366,222.053284 C270.351451,223.689325 267.18837,223.151581 265.569174,220.852102 L255.550242,206.693353" id="Fill-56" fill="#FFF1CB"></path>
                <polyline id="Fill-57" fill="#FAB869" points="431.612245 306 465.926757 306 471.612245 331 437.301466 331 431.612245 306"></polyline>
                <path d="M371.394589,183 L538.829901,183 C544.758505,183 549.612245,187.868657 549.612245,193.819112 L549.612245,295.180136 C549.612245,301.131343 544.758505,306 538.829901,306 L371.394589,306 C365.465985,306 360.612245,301.131343 360.612245,295.180136 L360.612245,193.819112 C360.612245,187.868657 365.465985,183 371.394589,183" id="Fill-58" fill="#FAB869"></path>
                <path d="M363.394589,183 L530.826156,183 C536.758505,183 541.612245,187.868657 541.612245,193.819112 L541.612245,295.180136 C541.612245,301.131343 536.758505,306 530.826156,306 L363.394589,306 C357.465985,306 352.612245,301.131343 352.612245,295.180136 L352.612245,193.819112 C352.612245,187.868657 357.465985,183 363.394589,183" id="Fill-59" fill="#FFD695"></path>
                <g id="Group-62" transform="translate(362.612245, 193.000000)">
                    <mask id="mask-4" fill="white">
                        <use xlink:href="#path-3"></use>
                    </mask>
                    <g id="Clip-61"></g>
                    <path d="M0.725386412,0.158056266 L168.601601,0.158056266 C168.823351,0.158056266 169.003758,0.339820972 169.003758,0.561099744 L169.003758,101.92597 C169.003758,102.146496 168.823351,102.327885 168.601601,102.327885 L0.725386412,102.327885 C0.503636161,102.327885 0.323229178,102.146496 0.323229178,101.92597 L0.323229178,0.561099744 C0.323229178,0.339820972 0.503636161,0.158056266 0.725386412,0.158056266" id="Fill-60" fill="#FFF1CB" mask="url(#mask-4)"></path>
                </g>
                <polyline id="Fill-63" fill="#FFD695" points="429.612245 306 463.926227 306 469.612245 331 435.298263 331 429.612245 306"></polyline>
                <path d="M444.112245,297 C446.043543,297 447.612245,298.567307 447.612245,300.5 C447.612245,302.433075 446.043543,304 444.112245,304 C442.180947,304 440.612245,302.433075 440.612245,300.5 C440.612245,298.567307 442.180947,297 444.112245,297" id="Fill-65" fill="#BD3E19"></path>
                <path d="M425.013774,330 L471.612245,330 L471.612245,334.501916 C471.612245,336.977011 469.628932,339 467.206967,339 L420.612245,339 L420.612245,334.501916 C420.612245,332.02682 422.591808,330 425.013774,330" id="Fill-66" fill="#FAB869"></path>
                <path d="M423.013774,330 L469.612245,330 L469.612245,334.501916 C469.612245,336.977011 467.632682,339 465.210716,339 L418.612245,339 L418.612245,334.501916 C418.612245,332.02682 420.595558,330 423.013774,330" id="Fill-67" fill="#FFD695"></path>
                <polygon id="Fill-68" fill="#BD3E19" points="374.612245 242 440.612245 242 440.612245 201 374.612245 201"></polygon>
                <polygon id="Fill-69" fill="#BD3E19" points="374.612245 288 401.612245 288 401.612245 247 374.612245 247"></polygon>
                <polygon id="Fill-70" fill="#BD3E19" points="447.612245 252 522.612245 252 522.612245 247 447.612245 247"></polygon>
                <polygon id="Fill-71" fill="#BD3E19" points="447.612245 261 522.612245 261 522.612245 256 447.612245 256"></polygon>
                <polygon id="Fill-72" fill="#BD3E19" points="447.612245 270 522.612245 270 522.612245 265 447.612245 265"></polygon>
                <polygon id="Fill-73" fill="#BD3E19" points="447.612245 279 522.612245 279 522.612245 274 447.612245 274"></polygon>
                <polygon id="Fill-74" fill="#BD3E19" points="447.612245 288 522.612245 288 522.612245 283 447.612245 283"></polygon>
                <polygon id="Fill-75" fill="#BD3E19" points="405.612245 288 440.612245 288 440.612245 247 405.612245 247"></polygon>
                <polyline id="Fill-76" fill="#BD3E19" points="447.612245 202.054187 522.585875 202 522.612245 242.946192 447.642382 243 447.612245 202.054187"></polyline>
                <path d="M456.6741,209.160966 L511.542939,209 C512.127878,208.998718 512.612245,209.410603 512.612245,209.917268 C512.615949,210.422647 512.13533,210.838066 511.55039,210.839673 L456.681551,211 C456.096612,211.001921 455.612245,210.589393 455.612245,210.084014 L455.612245,210.083371 C455.608541,209.577671 456.085435,209.162251 456.6741,209.160966" id="Fill-77" fill="#FFF1CB"></path>
                <path d="M456.6741,217.159736 L511.542939,217 C512.127878,216.998078 512.612245,217.410739 512.612245,217.91628 L512.612245,217.916601 C512.615949,218.422785 512.13533,218.838338 511.55039,218.839623 L456.681551,219 C456.096612,219.001602 455.615992,218.589585 455.612245,218.083079 C455.608541,217.577217 456.08916,217.162307 456.6741,217.159736" id="Fill-78" fill="#FFF1CB"></path>
                <path d="M456.677804,225.160379 L511.542938,225 C512.131604,224.998078 512.612245,225.410739 512.612245,225.916601 C512.615949,226.422464 512.139055,226.837695 511.55039,226.839945 L456.68153,227 C456.09659,227.001602 455.615971,226.589585 455.612245,226.083722 L455.612245,226.083079 C455.612245,225.577217 456.089139,225.161986 456.677804,225.160379" id="Fill-79" fill="#FFF1CB"></path>
                <path d="M456.677735,233.160353 L511.539304,233 C512.127931,232.998079 512.60852,233.410672 512.612245,233.916453 C512.612245,234.422234 512.135382,234.837719 511.546755,234.839647 L456.685186,235 C456.096559,235.001921 455.61597,234.589328 455.612245,234.083547 C455.612245,233.576802 456.089108,233.161959 456.677735,233.160353" id="Fill-80" fill="#FFF1CB"></path>
                <path d="M423.017159,332 L461.211118,332 C461.979845,332 462.612245,332.676113 462.612245,333.502024 C462.612245,334.323887 461.979845,335 461.211118,335 L423.017159,335 C422.244645,335 421.612245,334.323887 421.612245,333.502024 C421.612245,332.676113 422.244645,332 423.017159,332" id="Fill-81" fill="#BD3E19"></path>
                <path d="M408.133251,141 L423.441454,141 C425.354028,141 430.057517,144.562652 430.882624,149.209606 C432.441582,156.68361 431.749557,173.134283 426.373054,179 L420.281713,178.920971 L401.612245,174.36241 L401.612245,143.324788 C403.380331,141.876056 405.65793,141 408.133251,141" id="Fill-82" fill="#F08F9F"></path>
                <path d="M423.612245,141 C431.012481,141.734832 431.701135,151.132255 431.604351,157 L423.615967,157 L423.612245,141" id="Fill-83" fill="#F08F9F"></path>
                <path d="M424.40213,157.058822 L431.612245,157 C428.768091,165.105905 423.327261,172 416.109759,172 L405.612245,172 C405.612245,172 407.843244,169.021991 410.783434,168.772862 C413.727318,168.524118 413.841823,168.946253 413.841823,168.946253 C416.301832,167.59796 421.99014,163.037523 424.40213,157.058822" id="Fill-84" fill="#F2C8C6"></path>
                <path d="M433.212755,217 L433.954643,222.239119 L435.87055,223.971025 C435.87055,223.971025 437.361975,223.902182 437.534062,224.409146 C437.709974,224.91798 437.534062,226 437.534062,226 L427.744198,226 C427.208815,223.719227 426.776684,221.31985 426.612245,217.301185 L433.212755,217" id="Fill-85" fill="#F2C8C6"></path>
                <path d="M390.350907,172 L422.296627,172 C422.660927,172 423.01396,172.033609 423.359481,172.09896 C432.279195,172.052654 433.387117,177.794192 434.014314,184.051067 L437.612245,220 L425.503968,220 L421.507937,183.410629 L390.350907,183.410629 C387.196145,183.410629 384.612245,180.843275 384.612245,177.705314 C384.612245,174.567354 387.196145,172 390.350907,172" id="Fill-86" fill="#524E64"></path>
                <path d="M398.612245,205.180225 L402.977858,215.053945 C402.977858,215.053945 402.690057,216.84014 401.957471,217.858396 C401.228623,218.877029 401.157607,219.621938 401.613604,220.234704 C402.073339,220.846337 402.196683,221 402.196683,221 L409.612245,213.182424 L405.725055,204 L398.612245,205.180225" id="Fill-87" fill="#F2C8C6"></path>
                <path d="M393.170752,172.856346 C394.349281,173.41235 395.46131,174.433846 396.288867,175.728779 C398.871286,179.766462 410.612245,207 410.612245,207 L397.116423,206.998479 L387.285495,184.810048 C386.879105,183.886671 384.850853,180.037618 384.666131,178.286701 C384.063935,172.64794 388.611802,170.702307 393.170752,172.856346" id="Fill-88" fill="#524E64"></path>
                <path d="M407.083739,133.77539 C405.471879,136.578394 408.239991,140.487523 411.643658,140.204274 L411.63983,141.093204 L409.782936,143.673416 L411.6092,146.325279 L413.515867,147 L418.114072,145.846107 L418.114072,137.769978 C418.282533,137.719598 418.29019,138.013669 418.63094,137.810283 C418.971689,137.607269 419.73359,136.105567 419.595759,135.331578 C419.454099,134.557589 418.439507,134.114244 418.439507,134.114244 L418.435679,134.114244 C419.392841,131.821013 420.150913,131.456409 417.685264,130.181604 C415.219615,128.906799 410.250031,129.001589 410.250031,129.001589 L407.994957,129.739005 C407.895412,131.872886 408.201704,131.831089 407.083739,133.77539" id="Fill-89" fill="#F2C8C6"></path>
                <path d="M411.1115,139.806313 C411.275434,139.812052 411.435643,139.808824 411.599577,139.795194 C413.037729,139.770445 414.274689,139.492109 415.612245,139 C415.612245,139 415.131619,140.499283 413.417759,141.26076 C411.815673,141.974175 410.742647,141.998924 410.612245,142 L411.595852,140.650287 L411.599577,139.795194 L411.1115,139.806313" id="Fill-90" fill="#CF6E6E"></path>
                <path d="M408.750972,129.79327 C410.598502,130.099043 412.089166,129.835369 413.219245,129.970899 C413.88837,130.051405 414.419954,130.398169 414.847451,130.741609 C415.9069,131.592087 416.728437,133.691137 416.966349,135.083364 C416.966349,135.083364 418.204231,134.568941 418.605707,134.824491 C419.0109,135.079301 418.758119,135.692324 418.694923,135.947135 C418.635446,136.201946 418.062971,136.474113 417.880821,136.632539 C417.33065,137.104493 418.628011,137.305757 420.155848,136.081188 C424.809989,132.350241 422.408571,125.561565 416.65409,123.61614 C413.858631,122.671124 414.189477,121.552542 412.263882,121.148537 C405.278953,119.796194 403.282728,128.077913 408.750972,129.79327" id="Fill-91" fill="#524E64"></path>
                <path d="M402.395333,143 C398.376951,146.654325 396.038716,151.70404 394.612245,157 C397.244598,156.823843 400.001951,156.836586 402.612245,156.751131 L402.395333,143" id="Fill-92" fill="#F08F9F"></path>
                <path d="M410.978723,141 C409.337453,143.804965 411.125971,145.796426 412.73851,146.696632 C415.008275,145.218957 417.051782,143.77906 417.051782,141 C417.051782,141 417.838299,140.984897 418.344686,142.231584 C419.185074,144.25075 417.777245,148.783799 417.777245,148.783799 C417.777245,148.783799 416.20062,146.737289 414.886167,146.627551 C413.575306,146.517094 412.724144,146.913588 412.724144,146.913588 C411.043369,145.680213 409.901303,147.279858 408.777195,148.451708 C408.421646,145.461818 408.468334,143.313126 410.702185,141 L410.978723,141 Z M412.803155,148.304193 C413.065327,148.304193 413.273628,148.516471 413.273628,148.778762 C413.273628,149.039972 413.065327,149.251891 412.803155,149.251891 C412.540983,149.251891 412.32909,149.039972 412.32909,148.778762 C412.32909,148.516471 412.540983,148.304193 412.803155,148.304193 Z M412.803155,151.052302 C413.065327,151.052302 413.273628,151.26494 413.273628,151.526151 C413.273628,151.788081 413.065327,152 412.803155,152 C412.540983,152 412.32909,151.788081 412.32909,151.526151 C412.32909,151.26494 412.540983,151.052302 412.803155,151.052302 L412.803155,151.052302 Z" id="Fill-93" fill="#FFFFFE"></path>
                <path d="M409.485966,154 L386.265346,154 C385.371375,154 384.439683,154.730277 384.639601,155.57588 L388.109869,170.424484 C388.306015,171.269723 388.841643,172 389.735614,172 L412.956234,172 C413.853978,172 414.781897,171.269723 414.585752,170.424484 L411.115484,155.57588 C410.915566,154.730277 410.38371,154 409.485966,154" id="Fill-94" fill="#BD3E19"></path>
                <path d="M408.485966,154 L385.265346,154 C384.371375,154 383.439683,154.730277 383.639601,155.57588 L387.109869,170.424484 C387.306015,171.269723 387.841643,172 388.735614,172 L411.956234,172 C412.853978,172 413.781897,171.269723 413.585752,170.424484 L410.115484,155.57588 C409.919338,154.730277 409.38371,154 408.485966,154" id="Fill-95" fill="#FFF1CB"></path>
                <path d="M398.571479,161.051684 C397.798982,161.265609 397.416886,162.087626 397.711764,162.887785 C398.010795,163.688302 398.878817,164.162377 399.651314,163.94881 C400.423811,163.73381 400.81006,162.911435 400.511029,162.111635 C400.211998,161.312193 399.343976,160.836684 398.571479,161.051684" id="Fill-96" fill="#BD3E19"></path>
                <path d="M424.887268,170 L413.612245,170 L413.612245,172 L425.612245,172 L425.612245,170.999504 C425.612245,170.449901 425.284021,170 424.887268,170" id="Fill-97" fill="#BD3E19"></path>
                <g id="Group" transform="translate(99.612245, 0.000000)" fill="#FFF1CB">
                    <path d="M311.043338,56.2597638 C313.207144,56.6381907 315.01519,57.8631764 316.184814,59.5376665 L316.184814,59.5396273 C317.354439,61.2175488 317.895391,63.3405631 317.520136,65.5125965 C317.144882,67.6900219 315.926522,69.5076477 314.259807,70.6865554 C312.597965,71.8659534 310.482893,72.4061431 308.319087,72.0286966 C306.160155,71.65125 304.356983,70.4257742 303.182485,68.7493233 L303.177611,68.751284 C302.003113,67.0758135 301.467035,64.9518188 301.842289,62.7753737 C302.217544,60.6048109 303.435903,58.7891459 305.102619,57.6077872 L305.102619,57.6048461 L305.107492,57.6023951 C306.774208,56.4239775 308.884406,55.8832976 311.043338,56.2597638 Z M313.855312,61.1861766 C313.104802,60.1126598 311.944924,59.3259043 310.555995,59.0827699 C309.162192,58.8396355 307.807376,59.1852197 306.740094,59.938152 L306.73522,59.9425637 C305.672811,60.6964765 304.893061,61.8646 304.649389,63.2660542 C304.405717,64.6630966 304.751731,66.0268061 305.507114,67.1022837 L305.502241,67.1071856 C306.25275,68.1777613 307.412628,68.9630462 308.806431,69.2052003 C310.200234,69.4488249 311.555049,69.1017701 312.622332,68.3449162 C313.689615,67.5885525 314.474238,66.420429 314.713037,65.0228964 C314.956708,63.6219324 314.610694,62.2582229 313.865058,61.1881374 L313.855312,61.1861766 L313.855312,61.1861766 Z" id="Fill-111"></path>
                    <g id="Group-6" transform="translate(259.201382, 2.415931)">
                        <path d="M9.37133542,0.0224707538 L9.37133542,0.0224707538 C10.1847599,0.164787245 10.7346807,0.951273115 10.5972005,1.77175361 L8.34596233,14.8095575 C8.2027538,15.6294618 7.41797104,16.1843233 6.60454657,16.0420068 C5.78539376,15.8996903 5.235473,15.1114759 5.37868153,14.2921477 L7.62991967,1.25376768 C7.7731282,0.433287183 8.55218262,-0.120421917 9.37133542,0.0224707538" id="Fill-112"></path>
                        <path d="M15.9474713,9.42227331 L15.9474713,9.42227331 C15.8099911,10.2427538 15.0252083,10.7976153 14.2117838,10.6552988 L1.24854744,8.39091089 C0.429394636,8.2485944 -0.12052613,7.46210853 0.0226824025,6.64162803 C0.165890935,5.82114753 0.944945354,5.26628607 1.76409816,5.40860256 L14.7273346,7.67299045 C15.540759,7.81530694 16.0906798,8.602369 15.9474713,9.42227331" id="Fill-113"></path>
                    </g>
                    <g id="Group-5" transform="translate(358.142495, 26.560245)">
                        <path d="M7.03857859,0.0166994915 L7.03857859,0.0166994915 C7.6499413,0.123464065 8.06251737,0.715384967 7.95749801,1.33145051 L6.26593613,11.1262513 C6.16091677,11.7423168 5.5720582,12.1588118 4.96069549,12.0520472 L4.96069549,12.0512927 C4.34558208,11.9445281 3.93300601,11.3533618 4.03802538,10.7372962 L5.72958725,0.942118212 C5.83460661,0.326429932 6.42346518,-0.0900650817 7.03857859,0.0166994915" id="Fill-114"></path>
                        <path d="M11.98199,7.07862898 L11.98199,7.07862898 C11.8732199,7.69544904 11.2881121,8.11194405 10.6729987,8.00517948 L0.936203495,6.30449151 C0.324840779,6.19772693 -0.0914859794,5.60580603 0.0172840745,4.98974049 L0.0172840745,4.98936323 C0.122303437,4.37329769 0.711162004,3.95680268 1.32252472,4.06432177 L11.0593199,5.76500974 C11.6744333,5.87177432 12.0870094,6.4629407 11.98199,7.07862898" id="Fill-115"></path>
                    </g>
                    <path d="M206.964403,39.8590187 C208.62971,40.1495088 210.021216,41.0919043 210.925133,42.3806243 L210.921382,42.3828879 C211.825299,43.6734943 212.237875,45.3081617 211.949072,46.9798007 C211.660269,48.6544577 210.722596,50.0540922 209.44361,50.9617797 C208.160874,51.8687127 206.536824,52.2848305 204.871517,51.9935858 C203.209961,51.7038501 201.818454,50.7603229 200.914538,49.4697165 L200.910787,49.4716028 C200.010621,48.1828828 199.598045,46.5482153 199.886848,44.8724265 C200.175651,43.2022966 201.109573,41.8045483 202.39231,40.8953518 L202.396061,40.8934655 L202.396061,40.8919565 C203.678797,39.9850235 205.306597,39.5685285 206.964403,39.8590187 Z M209.132303,43.6504814 C208.554696,42.822773 207.658281,42.217648 206.589334,42.0309043 C205.516636,41.8437834 204.473944,42.1089971 203.656293,42.6899775 L203.652542,42.6926183 C202.831141,43.2728442 202.23103,44.1711002 202.047246,45.2500637 C201.859712,46.3256319 202.126011,47.3759237 202.703617,48.202123 L202.703617,48.2062729 C203.281224,49.0305859 204.173888,49.6342019 205.246586,49.8217001 C206.315533,50.0080665 207.358226,49.7409665 208.179627,49.1584771 C209.004779,48.5763649 209.60489,47.6788634 209.792424,46.6025407 C209.976208,45.5243317 209.71366,44.4744172 209.136053,43.6512359 L209.132303,43.6504814 L209.132303,43.6504814 Z" id="Fill-116"></path>
                    <g id="Group-2" transform="translate(107.884280, 42.461484)">
                        <path d="M8.86236927,0.0212520556 L8.86236927,0.0212520556 C9.63167778,0.1553051 10.1517737,0.900770812 10.0217497,1.6756628 L7.89260715,14.0069081 C7.75716551,14.78289 7.01494533,15.3071137 6.24563683,15.1730606 C5.47632832,15.0384627 4.95081477,14.2929969 5.08625641,13.5170151 L7.21539896,1.18576977 C7.35084059,0.409787913 8.0876431,-0.113890851 8.86236927,0.0212520556" id="Fill-117"></path>
                        <path d="M15.087267,8.91125763 L15.087267,8.91234749 C14.9518253,9.68832935 14.2096051,10.2120081 13.4402966,10.0774101 L1.18011957,7.93692087 C0.410811065,7.80232289 -0.112535425,7.05685718 0.0207391472,6.28087533 C0.156180785,5.50489347 0.892983296,4.98175964 1.66770946,5.11526775 L13.9278865,7.25575702 C14.697195,7.390355 15.2172909,8.13582071 15.087267,8.91125763" id="Fill-118"></path>
                    </g>
                    <g id="Group-4" transform="translate(159.209896, 0.000000)">
                        <path d="M7.03762524,0.0167103155 L7.03762524,0.0167103155 C7.64898796,0.123852149 8.06531472,0.715018531 7.95654466,1.33146133 L6.26873348,11.1258848 C6.15996343,11.7423276 5.57110486,12.1584454 4.95974215,12.0516808 C4.34837943,11.944539 3.93205267,11.3533726 4.04082272,10.7365525 L5.72863391,0.942506296 C5.83740396,0.326063496 6.42626253,-0.0900542576 7.03762524,0.0167103155" id="Fill-119"></path>
                        <path d="M11.9810367,7.07826254 L11.9810367,7.07901706 C11.8760173,7.69470534 11.2871587,8.11120036 10.675796,8.00443578 L0.935250152,6.30412507 C0.323887435,6.1973605 -0.0886886309,5.6054396 0.0163307314,4.98937406 L0.0163307314,4.98861954 C0.121350094,4.37330852 0.710208661,3.9568135 1.32157138,4.06357808 L11.0621172,5.76426605 C11.67348,5.87103062 12.086056,6.46295152 11.9810367,7.07826254" id="Fill-120"></path>
                    </g>
                    <path d="M61.0990619,10.0141572 C63.3952507,10.4157365 65.3128787,11.7151472 66.5571648,13.4920836 L66.5535447,13.4941643 C67.7988651,15.274742 68.3698094,17.5276434 67.9721136,19.832563 C67.5733835,22.1432045 66.2810016,24.0725537 64.5143842,25.3230675 C62.7477669,26.5746217 60.5063969,27.1483807 58.2102081,26.7473216 C55.9186737,26.3473028 54.0020801,25.0452912 52.7557253,23.2662741 L52.7526223,23.2693951 C51.5078191,21.4924588 50.9379091,19.2374766 51.3366392,16.9278754 C51.734335,14.6250366 53.0256826,12.6967277 54.7933343,11.4441332 L54.7969544,11.4420525 L54.8000574,11.4384112 C56.5692605,10.1878974 58.8085618,9.61465858 61.0990619,10.0141572 Z M64.0856589,15.2419706 C63.2876815,14.1017351 62.0558073,13.2673656 60.5813851,13.0093561 C59.1028257,12.7513466 57.6640875,13.1180738 56.5356452,13.917071 L56.5284049,13.922793 C55.3989283,14.7223103 54.5709557,15.9613801 54.3144445,17.448576 C54.0584505,18.9316105 54.4245995,20.3787524 55.223094,21.518988 L55.2220597,21.5257503 C56.016934,22.660784 57.2488083,23.4941131 58.7273678,23.7510822 C60.2017899,24.0090917 61.6405281,23.6418443 62.7746592,22.8386857 C63.9082731,22.0355271 64.7383143,20.7964573 64.9948255,19.3129027 C65.2508196,17.826227 64.8872563,16.379085 64.0913476,15.2435311 L64.0856589,15.2419706 L64.0856589,15.2419706 Z" id="Fill-121"></path>
                    <g id="Group-3" transform="translate(0.000000, 66.493315)">
                        <path d="M9.54197372,0.0227012339 L9.54197372,0.0238749316 C10.3727936,0.168826598 10.9340637,0.971048977 10.7899538,1.80554804 L8.49819794,15.0853507 C8.3535046,15.9210235 7.55652433,16.4861589 6.72628792,16.3400335 L6.72570448,16.3400335 C5.89488464,16.1950819 5.33361449,15.3922726 5.47772439,14.5571867 L7.7700637,1.27797093 C7.9141736,0.442298163 8.71173731,-0.122250432 9.54197372,0.0227012339" id="Fill-122"></path>
                        <path d="M16.2445428,9.59831394 L16.2445428,9.59831394 C16.1004329,10.4339867 15.3034526,10.9985353 14.4726328,10.8535836 L1.27053205,8.54844134 C0.440295645,8.40348968 -0.121557943,7.6012673 0.0225519597,6.76559453 L0.0225519597,6.76442084 C0.166661862,5.92874807 0.964809016,5.36537317 1.79504542,5.51032484 L14.9971461,7.81546713 C15.827966,7.95983195 16.3892361,8.76264117 16.2445428,9.59831394" id="Fill-123"></path>
                    </g>
                    <path d="M420.790328,60.632244 C422.954134,61.010671 424.762179,62.2351664 425.931804,63.9086762 L425.931804,63.9116174 C427.106302,65.5895389 427.64238,67.7125532 427.267126,69.8845866 C426.891871,72.0615218 425.673512,73.8791476 424.006796,75.0585455 C422.344954,76.2379435 420.234756,76.777643 418.07095,76.4001965 C415.907144,76.0227499 414.103972,74.7967839 412.929474,73.1208231 L412.924601,73.1222937 C411.754976,71.4478035 411.214024,69.3228284 411.589279,67.1473637 C411.964534,64.976801 413.182893,63.161136 414.849608,61.9787969 L414.849608,61.9768361 L414.854482,61.9743852 C416.521197,60.7949872 418.631395,60.2557779 420.790328,60.632244 Z M423.607175,65.5581667 C422.851792,64.4841597 421.691914,63.696914 420.302984,63.45476 C418.909181,63.2106452 417.554366,63.5562294 416.491957,64.3101421 L416.48221,64.3145538 C415.4198,65.0679764 414.64005,66.2356097 414.396379,67.6370639 C414.15758,69.0345965 414.498721,70.3992864 415.254104,71.4737836 L415.254104,71.4791757 C415.999739,72.5492612 417.164491,73.3340559 418.55342,73.5771903 C419.947223,73.8203247 421.302039,73.4727798 422.369322,72.7164161 C423.436604,71.9600524 424.221228,70.7929092 424.460026,69.3943962 C424.703698,67.9929421 424.362557,66.6292326 423.612048,65.5591471 L423.607175,65.5581667 L423.607175,65.5581667 Z" id="Fill-124"></path>
                </g>
                <polygon id="Fill-127" fill="#FFF1CB" points="409.612245 254 436.612245 254 436.612245 251 409.612245 251"></polygon>
                <polygon id="Fill-128" fill="#FFF1CB" points="409.612245 262 436.612245 262 436.612245 259 409.612245 259"></polygon>
                <polygon id="Fill-129" fill="#FFF1CB" points="409.612245 270 436.612245 270 436.612245 267 409.612245 267"></polygon>
                <polygon id="Fill-130" fill="#FFF1CB" points="409.612245 278 436.612245 278 436.612245 275 409.612245 275"></polygon>
                <polygon id="Fill-131" fill="#FFF1CB" points="377.612245 254 398.612245 254 398.612245 251 377.612245 251"></polygon>
                <polygon id="Fill-132" fill="#FFF1CB" points="377.612245 262 398.612245 262 398.612245 259 377.612245 259"></polygon>
                <polygon id="Fill-133" fill="#FFF1CB" points="377.612245 270 398.612245 270 398.612245 267 377.612245 267"></polygon>
                <polygon id="Fill-134" fill="#FFF1CB" points="377.612245 278 398.612245 278 398.612245 275 377.612245 275"></polygon>
                <path d="M2.40001106,339 L593.825519,339 C594.258738,339 594.612245,339.448352 594.612245,339.997802 C594.612245,340.551648 594.258738,341 593.825519,341 L2.40001106,341 C1.96679171,341 1.612245,340.551648 1.612245,339.997802 C1.612245,339.448352 1.96679171,339 2.40001106,339" id="Fill-135" fill="#BD3E19"></path>
            </g>
        </g>
    </g>
</svg>