<svg xmlns="http://www.w3.org/2000/svg" viewBox="0 0 721.7 897.1"><defs><style>.a,.f{fill:#2f3f67;}.b{fill:#c97f32;}.c{fill:#fff;}.d{fill:#b2b1b1;}.e{fill:#ccc;}.f{font-size:37.34px;font-family:Montserrat-Medium, Montserrat;font-weight:500;}</style></defs><path class="a" d="M376.8,17.2,585.4,74.4a50.8,50.8,0,0,0,33.4,43.8V434.7c0,23.6-7.5,47.9-22.2,72.1-17.3,28.5-44.2,56.1-80,82.2a486.1,486.1,0,0,1-99.3,56.3c-21.6,9-36.5,13-40.5,14-4.1-1-19-5-40.6-14A486.1,486.1,0,0,1,236.9,589c-35.7-26.1-62.7-53.7-80-82.2-14.7-24.2-22.2-48.5-22.2-72.1V118.2a50.8,50.8,0,0,0,33.4-43.8L376.8,17.2m0-5.2L163.3,70.5a45.6,45.6,0,0,1-33.6,44V434.7c0,44.9,26.5,101.6,104.3,158.3s142.8,71.4,142.8,71.4,64.9-14.6,142.7-71.4S623.8,479.6,623.8,434.7V114.5a45.6,45.6,0,0,1-33.6-44L376.8,12Z" transform="translate(-15.9 -12)"/><path class="b" d="M667.8,487.1c20.8,14.2,20.7,29.3,7.4,54.7-13.4-7.6-18.6-15.4-19.7-21.4s1-7.7,3.8-12.3S666,497.3,667.8,487.1Zm-18.6,36.4c17.9,20.4,14.5,34.6-2.4,57.8-12.9-10.2-17.1-19.2-17.4-25.6s2.2-7.8,6.1-12S644.7,533.8,649.2,523.5ZM590.5,589c13.7,27.3,7.4,40.2-14.1,59.3C564.8,634,562,623.4,563,616.6c.6-5.2,3.7-7.5,8.6-10.8,2.4-1.6,5.3-3.5,8.6-6.1A71.2,71.2,0,0,0,590.5,589Zm31.9-31.2c15.6,24.3,10.5,37.8-9,58.9-12.3-12.3-15.8-22.2-15.4-28.8C598.4,577.7,609.7,577.5,622.4,557.8Zm57.4-114.3c20.7,12.3,22.4,26.3,15.7,54.2-13.8-3.7-20.2-9.8-22.5-15.6s-.5-8.1,1.4-13.7A88.4,88.4,0,0,0,679.8,443.5Zm31-31.6c-9.2-10.8-13.3-18.8-12.9-27.1s5-16.7,11.9-28.9c9.7,10.1,15,19.6,15.5,28.6S721.5,402.4,710.8,411.9Zm-24.5-13.1c20.4,9.3,23.6,23.1,20.3,51.6-13.3-1.8-19.8-7.1-22.4-12.5C679.9,429.7,687.4,422.4,686.3,398.8Zm51.3,1.7c-3.1,26.8.7,36.5-5.4,44.4-4.2,5.1-12.2,8.3-25.3,5.5C712.8,422.2,716.4,409.7,737.6,400.5ZM674.8,601c-19.9,19-21.4,30.3-32.4,31.8-7.3.8-17.2-2.8-28.7-15.9C635.6,598.2,646.7,591.3,674.8,601ZM725,503.8c-5.5,13.9-8.6,23.2-11.1,30s-4.8,11.1-9.5,13.7c-6.5,3.3-16,3-28.9-5.5,8.1-11.9,13.6-20.8,20.7-26.8S711.8,505.6,725,503.8Zm-20.9,52.1a270.4,270.4,0,0,0-16.5,25.6c-3.6,5.9-6.2,9.8-11.6,11.2s-16.7-.2-28.9-11.2C666.6,560.2,676.2,551.8,704.1,555.9ZM555.3,616.7c6,15.1,6.9,25.6,3.7,34.6s-10.9,16.3-22.6,24.6c-10.6-16.3-12.5-27.4-11.1-34.4,1.1-5.3,4.4-7.2,9.5-10S547.1,625.3,555.3,616.7ZM734.5,452.5a251.6,251.6,0,0,0-5.3,28.8c-.9,6.7-2,11.1-5.9,14.6s-13.8,6.7-27.5,1.9C705.2,470.6,710.6,458.7,734.5,452.5ZM640.4,640.9a131.8,131.8,0,0,0-13.2,11.3c-3.5,3.3-6.2,6.2-8.6,8.7-4.7,4.9-8.2,7.9-13.8,7.9-7.6-.2-17.4-5.3-28.2-20.2C600.5,632.3,612.4,626.9,640.4,640.9Zm-80.3,67.8c-12.7,5.7-20.1,11.2-25.8,15.1s-9.8,6.3-15.7,4.6-12.4-6.5-18.7-17c-3.8-5.8-7.6-5.2-11.7-3.3-2.2,1-13.5,6.9-26.9,12.7s-29.1,10.7-38.3,12.4-14.4.6-17.3-1.2a7.3,7.3,0,0,1-3.7-5.8,8,8,0,0,1,2.3-6.6c2.4-2.5,6.7-4.5,15.1-6s23.6-3.7,37.1-7.2,25.2-7.4,27.3-8.4c3.9-1.7,6.8-4.1,4.9-10.3-4.3-12-4.6-20.4-3-25.8s4.9-6.8,10.3-8.8,12.7-4.8,21.6-12.5c8.8,29.9,2.2,42.3-18.5,55.2l.9.5v.8C522.8,688.5,535.7,688.2,560.1,708.7ZM602,676.8c-11.8,7-18.5,13.2-23.7,17.6s-9,7.1-14.8,6.3c-7.6-1-17.2-7.6-26.9-24.4,12.8-6.8,22.2-11.3,32-11.7S588.4,667.8,602,676.8Z" transform="translate(-15.9 -12)"/><path class="b" d="M28.5,503.8c13.3,1.8,21.7,5.4,28.8,11.4S69.9,530.1,78,542c-12.8,8.5-22.4,8.8-28.9,5.5-4.7-2.6-6.9-6.8-9.5-13.7S34,517.7,28.5,503.8Zm21,52.1c27.8-4.1,37.4,4.3,57,25.6-12.3,11-22.1,13.1-29,11.2-5.3-1.4-7.9-5.3-11.6-11.2A246.2,246.2,0,0,0,49.5,555.9Zm63.6,85c28-14,39.9-8.6,63.8,7.7-10.8,14.9-20.6,20-28.2,20.2-5.6,0-9-3-13.8-7.9-2.3-2.5-5-5.4-8.6-8.7A131.8,131.8,0,0,0,113.1,640.9ZM78.8,601c28.1-9.7,39.1-2.8,61,15.9-11.5,13.1-21.4,16.7-28.7,15.9C100.1,631.3,98.6,620,78.8,601ZM19,452.5c24,6.2,29.3,18.1,38.7,45.3-13.7,4.8-22.5,2.6-27.5-1.9s-4.9-7.9-5.9-14.6A251.6,251.6,0,0,0,19,452.5ZM41.7,412c-10.7-9.6-15.1-18.4-14.6-27.5s5.8-18.5,15.6-28.7c6.8,12.1,11.6,20.6,11.8,29S50.9,401.1,41.7,412ZM15.9,400.5c21.3,9.2,24.8,21.7,30.7,49.9-13.1,2.8-21-.4-25.3-5.5C15.2,437,19,427.3,15.9,400.5Zm51.3-1.7c-1.1,23.6,6.4,30.9,2.1,39.1-2.5,5.4-9.1,10.7-22.4,12.5C43.6,421.9,46.8,408.1,67.2,398.8Zm64,159c12.6,19.7,23.9,19.9,24.3,30.1.4,6.6-3.1,16.5-15.4,28.8C120.7,595.6,115.6,582.1,131.2,557.8ZM85.7,487.1c1.8,10.2,5.7,16.4,8.5,21s4.8,7.7,3.8,12.3-6.3,13.8-19.7,21.4C65,516.4,64.9,501.3,85.7,487.1Zm18.6,36.4c4.5,10.3,9.9,16,13.7,20.2s6.2,7.1,6.1,12-4.5,15.4-17.4,25.6C89.8,558.1,86.4,543.9,104.3,523.5Zm47.2,153.3c13.6-9,23.7-12.7,33.4-12.2s19.3,4.9,32,11.7c-9.6,16.8-19.3,23.4-26.9,24.4-5.8.8-9.6-1.8-14.8-6.3S163.3,683.8,151.5,676.8ZM73.7,443.5a88.4,88.4,0,0,0,5.4,24.9c1.9,5.6,3.1,9.3,1.4,13.7S71.9,494,58,497.7C51.3,469.8,53.1,455.8,73.7,443.5ZM163,589a66.7,66.7,0,0,0,10.4,10.7c3.2,2.6,6.1,4.5,8.5,6.1,4.9,3.3,8,5.6,8.7,10.8.9,6.8-1.9,17.4-13.5,31.7C155.6,629.2,149.3,616.3,163,589Zm73,51.6c8.8,7.7,16.2,10.4,21.5,12.5s8.7,3.6,10.3,8.8,1.3,13.3-2.6,24.8c-2.2,6.6.8,9,4.8,10.8,2,1,13.8,4.8,27.3,8.3s28.5,5.8,36.9,7.2,12.7,3.5,15,5.9a8.1,8.1,0,0,1,2.4,6.6,7.6,7.6,0,0,1-3.7,5.9c-2.9,1.7-8.2,3-17.3,1.2s-24.9-6.6-38.2-12.4-24.7-11.7-26.8-12.7c-4-1.8-7.8-2.4-11.5,3-6.5,11-13.2,16.2-19.2,17.9s-9.9-.7-15.6-4.6-13.2-9.4-25.9-15.1c24.5-20.5,37.3-20.2,60.3-11.5v-1l.7-.5C233.7,682.8,227.1,670.5,236,640.6Zm-37.7-23.9c8.1,8.6,15.2,12.1,20.4,14.8s8.4,4.7,9.5,10c1.4,7-.5,18.1-11.1,34.4-11.7-8.3-19.3-15.7-22.6-24.6S192.3,631.8,198.3,616.7Z" transform="translate(-15.9 -12)"/><path class="a" d="M376.8,58.3l176.4,48.3a90.9,90.9,0,0,0,26,34.1V389.4H174.3V140.7a90.9,90.9,0,0,0,26-34.1L376.8,58.3m0-1.5L199.3,105.4A89.8,89.8,0,0,1,172.9,140V390.9H580.7V140a89.8,89.8,0,0,1-26.4-34.6L376.8,56.8Z" transform="translate(-15.9 -12)"/><path class="a" d="M172.9,390.9v43.8c0,22.6,11.2,68.5,86.5,123.5,52.2,38,98.1,55.2,117.4,61.4,19.1-6.1,65-23.3,117.3-61.4,75.3-55,86.6-100.9,86.6-123.5V390.9Z" transform="translate(-15.9 -12)"/><path class="c" d="M212.6,412c4.3,0,7.5,1,9.4,3s2.9,5.1,2.9,9.2V426a15,15,0,0,1-1.3,6.8,8.4,8.4,0,0,1-4,3.9,9.1,9.1,0,0,1,4.8,4.2,16.6,16.6,0,0,1,1.4,7.1v4.3c0,4.1-1.1,7.2-3.2,9.4s-5.3,3.2-9.5,3.2h-13V412Zm-4.2,7.6v13.9h3.2a5.3,5.3,0,0,0,3.7-1.2c.9-.8,1.3-2.3,1.3-4.4V425a6.9,6.9,0,0,0-1-4.2,4.1,4.1,0,0,0-3.2-1.2Zm0,21.5v16.2h4.7a4.9,4.9,0,0,0,3.3-1.1c.7-.8,1-2.1,1-4.1v-4.6q0-3.7-1.2-5.1c-.8-.9-2.2-1.3-4.1-1.3Z" transform="translate(-15.9 -12)"/><path class="c" d="M248.8,464.9l-.3-1-.3-1.1a9.7,9.7,0,0,1-.1-1.8,20.1,20.1,0,0,1-.1-2.6v-8.3c0-2.5-.4-4.2-1.2-5.2a5.1,5.1,0,0,0-4.2-1.6h-2.9v21.6h-8.3V412H244c4.3,0,7.4,1,9.4,3s2.9,5.1,2.9,9.2v4.1c0,5.5-1.8,9-5.5,10.7a7.9,7.9,0,0,1,4.4,4.2,18.9,18.9,0,0,1,1.1,7.1v8.1a33.2,33.2,0,0,0,.2,3.5,8.4,8.4,0,0,0,.8,3Zm-9.1-45.3v16.2H243a5.1,5.1,0,0,0,3.6-1.2c.9-.8,1.4-2.3,1.4-4.4V425a6.8,6.8,0,0,0-1.1-4.2,3.8,3.8,0,0,0-3.2-1.2Z" transform="translate(-15.9 -12)"/><path class="c" d="M262.5,412h8.3v52.9h-8.3Z" transform="translate(-15.9 -12)"/><path class="c" d="M290,435.4h11.6v16.8c0,4.3-1.1,7.5-3.1,9.8s-5.2,3.5-9.3,3.5-7.2-1.2-9.3-3.5-3.1-5.5-3.1-9.8V424.7c0-4.3,1.1-7.6,3.1-9.9s5.2-3.4,9.3-3.4,7.2,1.1,9.3,3.4,3.1,5.6,3.1,9.9v5.1h-7.9v-5.6a6.1,6.1,0,0,0-1.1-4.1,4.4,4.4,0,0,0-3.2-1.2,4.1,4.1,0,0,0-3.1,1.2c-.8.8-1.2,2.1-1.2,4.1v28.5c0,1.9.4,3.3,1.2,4a4.1,4.1,0,0,0,3.1,1.1,4.3,4.3,0,0,0,3.2-1.1c.7-.7,1.1-2.1,1.1-4V443H290Z" transform="translate(-15.9 -12)"/><path class="c" d="M315.9,464.9h-8.3V412h8.3v22.7h9.5V412h8.4v52.9h-8.4V442.2h-9.5Z" transform="translate(-15.9 -12)"/><path class="c" d="M338.1,412h25.7v7.6h-8.7v45.3h-8.3V419.6h-8.7Z" transform="translate(-15.9 -12)"/><path class="c" d="M388.8,435.5h10.8V443H388.8v21.9h-8.3V412h22v7.6H388.8Z" transform="translate(-15.9 -12)"/><path class="c" d="M415.1,412v40.8c0,1.9.4,3.2,1.2,4a4.5,4.5,0,0,0,3.1,1.1,4.8,4.8,0,0,0,3.2-1.1,6,6,0,0,0,1.1-4V412h7.9v40.3c0,4.2-1.1,7.5-3.2,9.8s-5.1,3.5-9.2,3.5-7.2-1.2-9.3-3.5-3.1-5.6-3.1-9.8V412Z" transform="translate(-15.9 -12)"/><path class="c" d="M435.5,412h25.7v7.6h-8.7v45.3h-8.3V419.6h-8.7Z" transform="translate(-15.9 -12)"/><path class="c" d="M473.4,412v40.8c0,1.9.4,3.2,1.2,4a4.5,4.5,0,0,0,3.1,1.1,4.8,4.8,0,0,0,3.2-1.1,6,6,0,0,0,1.1-4V412h7.9v40.3c0,4.2-1.1,7.5-3.1,9.8s-5.2,3.5-9.3,3.5-7.2-1.2-9.3-3.5-3.1-5.6-3.1-9.8V412Z" transform="translate(-15.9 -12)"/><path class="c" d="M513.6,464.9l-.3-1-.3-1.1c0-.5-.1-1.1-.1-1.8s-.1-1.6-.1-2.6v-8.3c0-2.5-.4-4.2-1.2-5.2a5.1,5.1,0,0,0-4.2-1.6h-2.9v21.6h-8.3V412h12.6c4.3,0,7.4,1,9.4,3s2.9,5.1,2.9,9.2v4.1c0,5.5-1.8,9-5.5,10.7a7.6,7.6,0,0,1,4.4,4.2,18.8,18.8,0,0,1,1.2,7.1v8.1c0,1.4,0,2.5.1,3.5a11.1,11.1,0,0,0,.8,3Zm-9.1-45.3v16.2h3.3a5.5,5.5,0,0,0,3.7-1.2c.8-.8,1.3-2.3,1.3-4.4V425a7.6,7.6,0,0,0-1-4.2,4.2,4.2,0,0,0-3.3-1.2Z" transform="translate(-15.9 -12)"/><path class="c" d="M535.6,434.3H547v7.5H535.6v15.5h14.3v7.6H527.3V412h22.6v7.6H535.6Z" transform="translate(-15.9 -12)"/><path class="a" d="M80.4,758.4c7.9,0,13.6,1.8,17.1,5.5s5.3,9.2,5.3,16.6V784a28.9,28.9,0,0,1-2.3,12.2,15.5,15.5,0,0,1-7.5,7.2,14.9,14.9,0,0,1,8.8,7.6,29.9,29.9,0,0,1,2.5,13v7.8c0,7.5-1.9,13.1-5.8,17s-9.5,5.9-17.1,5.9H57.6V758.4Zm-7.7,13.7v25.5h5.9a9.5,9.5,0,0,0,6.7-2.2c1.6-1.5,2.4-4.1,2.4-8v-5.3c0-3.5-.6-6.1-1.9-7.6s-3.2-2.4-5.8-2.4Zm0,39.2v29.6h8.7a8,8,0,0,0,5.8-2c1.3-1.4,2-3.9,2-7.5V823c0-4.5-.8-7.5-2.3-9.2s-4-2.5-7.5-2.5Z" transform="translate(-15.9 -12)"/><path class="a" d="M146.3,854.7a18.9,18.9,0,0,0-.6-1.8c-.2-.6-.3-1.3-.5-2.1a25.4,25.4,0,0,1-.2-3.1c-.1-1.3-.1-2.9-.1-4.9V827.7c0-4.5-.8-7.6-2.3-9.5s-4.1-2.7-7.6-2.7h-5.2v39.2H114.6V758.4h22.9c7.9,0,13.6,1.8,17.1,5.5s5.3,9.2,5.3,16.6v7.6q0,14.9-9.9,19.5a13.6,13.6,0,0,1,7.9,7.7,34.7,34.7,0,0,1,2.1,12.8V843a54.6,54.6,0,0,0,.3,6.2,19.4,19.4,0,0,0,1.4,5.5Zm-16.5-82.6v29.6h5.9a9.2,9.2,0,0,0,6.6-2.2c1.7-1.4,2.5-4.1,2.5-8v-9.4c0-3.5-.7-6.1-1.9-7.6s-3.2-2.4-5.8-2.4Z" transform="translate(-15.9 -12)"/><path class="a" d="M171.2,758.4h15.1v96.3H171.2Z" transform="translate(-15.9 -12)"/><path class="a" d="M221.2,801h21.2v30.6c0,7.8-1.9,13.7-5.7,17.9s-9.4,6.3-16.8,6.3-13.1-2.1-16.9-6.3-5.7-10.1-5.7-17.9V781.5c0-7.8,1.9-13.8,5.7-17.9s9.4-6.3,16.9-6.3,13,2.1,16.8,6.3,5.7,10.1,5.7,17.9v9.4H228.1V780.5c0-3.4-.7-5.9-2.1-7.3a8.1,8.1,0,0,0-5.7-2.2,7.8,7.8,0,0,0-5.7,2.2c-1.5,1.4-2.2,3.9-2.2,7.3v52c0,3.5.7,5.9,2.2,7.3a7.7,7.7,0,0,0,5.7,2.1,8,8,0,0,0,5.7-2.1c1.4-1.4,2.1-3.8,2.1-7.3V814.8h-6.9Z" transform="translate(-15.9 -12)"/><path class="a" d="M268.5,854.7H253.4V758.4h15.1v41.3h17.2V758.4h15.4v96.3H285.7V813.4H268.5Z" transform="translate(-15.9 -12)"/><path class="a" d="M309,758.4h46.7v13.7H339.9v82.6H324.8V772.1H309Z" transform="translate(-15.9 -12)"/><path class="a" d="M401.3,801.2h19.5v13.7H401.3v39.8H386.1V758.4h40.1v13.7H401.3Z" transform="translate(-15.9 -12)"/><path class="a" d="M449.1,758.4v74.3c0,3.5.7,5.9,2.2,7.3a9.1,9.1,0,0,0,11.4,0c1.4-1.4,2.1-3.8,2.1-7.3V758.4h14.3v73.3q0,11.7-5.7,18c-3.8,4.1-9.4,6.2-16.8,6.2s-13.1-2.1-16.9-6.2-5.7-10.2-5.7-18V758.4Z" transform="translate(-15.9 -12)"/><path class="a" d="M486.3,758.4H533v13.7H517.2v82.6H502.1V772.1H486.3Z" transform="translate(-15.9 -12)"/><path class="a" d="M555.3,758.4v74.3c0,3.5.7,5.9,2.1,7.3a9.3,9.3,0,0,0,11.5,0c1.4-1.4,2.1-3.8,2.1-7.3V758.4h14.3v73.3q0,11.7-5.7,18c-3.8,4.1-9.4,6.2-16.9,6.2s-13-2.1-16.8-6.2-5.7-10.2-5.7-18V758.4Z" transform="translate(-15.9 -12)"/><path class="a" d="M628.5,854.7a18.9,18.9,0,0,0-.6-1.8c-.2-.6-.3-1.3-.5-2.1a25.4,25.4,0,0,1-.2-3.1c-.1-1.3-.1-2.9-.1-4.9V827.7c0-4.5-.8-7.6-2.3-9.5s-4.1-2.7-7.6-2.7H612v39.2H596.8V758.4h22.9c7.9,0,13.6,1.8,17.1,5.5s5.3,9.2,5.3,16.6v7.6q0,14.9-9.9,19.5a13.6,13.6,0,0,1,7.9,7.7,34.7,34.7,0,0,1,2.1,12.8V843a54.6,54.6,0,0,0,.3,6.2,23.4,23.4,0,0,0,1.4,5.5ZM612,772.1v29.6h5.9a9.5,9.5,0,0,0,6.7-2.2c1.6-1.4,2.4-4.1,2.4-8v-9.4c0-3.5-.7-6.1-1.9-7.6s-3.2-2.4-5.8-2.4Z" transform="translate(-15.9 -12)"/><path class="a" d="M668.5,799h20.8v13.7H668.5v28.2h26.1v13.8H653.4V758.4h41.2v13.7H668.5Z" transform="translate(-15.9 -12)"/><polygon class="d" points="361.6 73.7 369.1 88.9 385.8 91.3 373.7 103.1 376.6 119.8 361.6 111.9 346.6 119.8 349.5 103.1 337.4 91.3 354.1 88.9 361.6 73.7"/><polygon class="d" points="416.8 87.1 421.8 97.1 432.9 98.8 424.9 106.6 426.8 117.7 416.8 112.5 406.8 117.7 408.8 106.6 400.7 98.8 411.8 97.1 416.8 87.1"/><polygon class="d" points="306.4 87.1 311.4 97.1 322.5 98.8 314.5 106.6 316.4 117.7 306.4 112.5 296.4 117.7 298.3 106.6 290.3 98.8 301.4 97.1 306.4 87.1"/><path class="b" d="M344.3,500a6.5,6.5,0,0,1,1.4-4.5,6.3,6.3,0,0,1,8.4,0c1,1,1.4,2.5,1.4,4.5v.7h-3.6v-1a2.3,2.3,0,0,0-.5-1.8,1.6,1.6,0,0,0-1.4-.5,1.7,1.7,0,0,0-1.4.5,2.8,2.8,0,0,0-.5,1.8,3.8,3.8,0,0,0,.6,2.2,4.9,4.9,0,0,0,1.4,1.8,13.7,13.7,0,0,0,1.7,1.7,10.7,10.7,0,0,1,1.8,1.9,7.4,7.4,0,0,1,1.4,2.3,6.7,6.7,0,0,1,.6,3,6.4,6.4,0,0,1-1.5,4.5,5.4,5.4,0,0,1-4.2,1.6,5.8,5.8,0,0,1-4.3-1.6,6.9,6.9,0,0,1-1.4-4.5v-1.5h3.6v1.7a2.6,2.6,0,0,0,.5,1.8,2,2,0,0,0,1.5.6,1.7,1.7,0,0,0,1.4-.6,2.2,2.2,0,0,0,.6-1.8,4.3,4.3,0,0,0-.6-2.2,11,11,0,0,0-1.4-1.8l-1.8-1.7c-.6-.5-1.2-1.2-1.8-1.8a10.5,10.5,0,0,1-1.3-2.3A7.3,7.3,0,0,1,344.3,500Z" transform="translate(-15.9 -12)"/><path class="b" d="M360.3,494.2h3.8v24.2h-3.8Z" transform="translate(-15.9 -12)"/><path class="b" d="M372.9,500.8v17.6h-3.4V494.2h4.7l3.9,14.5V494.2h3.4v24.2h-3.9Z" transform="translate(-15.9 -12)"/><path class="b" d="M397.9,509.4v3.2a6.9,6.9,0,0,1-1.4,4.5,5.8,5.8,0,0,1-4.3,1.6,5.6,5.6,0,0,1-4.2-1.6,6.4,6.4,0,0,1-1.4-4.5V500c0-2,.4-3.5,1.4-4.5a5.2,5.2,0,0,1,4.2-1.6,5.4,5.4,0,0,1,4.3,1.6,6.5,6.5,0,0,1,1.4,4.5v2.3h-3.6v-2.6a2.8,2.8,0,0,0-.5-1.8,2,2,0,0,0-1.5-.5,1.7,1.7,0,0,0-1.4.5,2.3,2.3,0,0,0-.5,1.8v13.1c0,.9.1,1.5.5,1.8a1.8,1.8,0,0,0,1.4.6,2,2,0,0,0,1.5-.6,2.6,2.6,0,0,0,.5-1.8v-3.4Z" transform="translate(-15.9 -12)"/><path class="b" d="M406.6,504.4h5.2v3.4h-5.2v7.1h6.6v3.5H402.8V494.2h10.4v3.4h-6.6Z" transform="translate(-15.9 -12)"/><path class="c" d="M338.2,534.2a7.8,7.8,0,0,0,2.4-.3,3.5,3.5,0,0,0,1.6-.9,3.8,3.8,0,0,0,.9-1.3,7.7,7.7,0,0,0,.7-1.6h3.4v32.4h-5.1V537.8h-3.9Z" transform="translate(-15.9 -12)"/><path class="c" d="M371.8,554.4a9.5,9.5,0,0,1-1.9,6.3,7.6,7.6,0,0,1-5.9,2.2,7.4,7.4,0,0,1-5.7-2.1,9.3,9.3,0,0,1-1.9-6.1v-.8h4.8V555a3.9,3.9,0,0,0,.7,2.5,2.7,2.7,0,0,0,2,.7,2.3,2.3,0,0,0,2-.8,4.8,4.8,0,0,0,.8-3.1v-6a4.7,4.7,0,0,1-4.7,2.9,5,5,0,0,1-4.3-1.9,9.5,9.5,0,0,1-1.4-5.5v-5.9a8.5,8.5,0,0,1,2-6,7.4,7.4,0,0,1,5.7-2.1,7.6,7.6,0,0,1,5.8,2.1,8.5,8.5,0,0,1,2,6Zm-7.8-7.8a3.2,3.2,0,0,0,2-.7,3.9,3.9,0,0,0,.7-2.5v-5.8a3.9,3.9,0,0,0-.7-2.5,3.2,3.2,0,0,0-2-.7,2.9,2.9,0,0,0-1.9.7,3.4,3.4,0,0,0-.7,2.5v5.8a3.4,3.4,0,0,0,.7,2.5A2.9,2.9,0,0,0,364,546.6Z" transform="translate(-15.9 -12)"/><path class="c" d="M393.5,554.4c0,2.8-.6,4.9-1.9,6.3a8.8,8.8,0,0,1-11.5.1c-1.3-1.4-1.9-3.5-1.9-6.1v-.8H383V555a3.4,3.4,0,0,0,.7,2.5,2.5,2.5,0,0,0,1.9.7,2.5,2.5,0,0,0,2.1-.8,4.8,4.8,0,0,0,.8-3.1v-6a4.8,4.8,0,0,1-4.8,2.9,5,5,0,0,1-4.2-1.9,9.5,9.5,0,0,1-1.4-5.5v-5.9a8.5,8.5,0,0,1,2-6,7.4,7.4,0,0,1,5.7-2.1,7.8,7.8,0,0,1,5.8,2.1c1.3,1.4,1.9,3.4,1.9,6Zm-7.7-7.8a2.7,2.7,0,0,0,1.9-.7,3.4,3.4,0,0,0,.8-2.5v-5.8a3.4,3.4,0,0,0-.8-2.5,2.7,2.7,0,0,0-1.9-.7,2.9,2.9,0,0,0-1.9.7,3.4,3.4,0,0,0-.7,2.5v5.8a3.4,3.4,0,0,0,.7,2.5A2.9,2.9,0,0,0,385.8,546.6Z" transform="translate(-15.9 -12)"/><path class="c" d="M399.2,552l9.2-21.9H414V552h2.4v4.6H414v5.9h-5v-5.9h-9.8Zm9.8,0V539.8L403.9,552Z" transform="translate(-15.9 -12)"/><polygon class="c" points="426.2 491.4 419.5 495.6 426 500.3 470.2 495.6 426.2 491.4"/><polygon class="c" points="295.5 491.4 302.2 495.6 295.7 500.3 251.5 495.6 295.5 491.4"/><circle class="a" cx="361.2" cy="714.2" r="15.4"/><polygon class="e" points="546.9 190.7 477 260.6 489.1 272.6 546.9 214.7 546.9 190.7"/><polygon class="e" points="546.9 141.1 452.2 235.8 465 248.5 546.9 166.6 546.9 141.1"/><polygon class="e" points="546.9 238.8 501.1 284.6 513.1 296.7 546.9 262.9 546.9 238.8"/><polygon class="e" points="546.9 286.9 525.2 308.7 546.9 330.4 546.9 286.9"/><polygon class="e" points="174 190.7 243.9 260.6 231.8 272.6 174 214.7 174 190.7"/><polygon class="e" points="174 141.1 268.7 235.8 255.9 248.5 174 166.6 174 141.1"/><polygon class="e" points="174 238.8 219.8 284.6 207.8 296.7 174 262.9 174 238.8"/><polygon class="e" points="174 286.9 195.7 308.7 174 330.4 174 286.9"/><path class="a" d="M179.8,379.2l10.4-9.9,14.8-14,42.9-11.1,15.4-19.6,6.7-20.9,27.6-6.1,32.5-20.2,30.7-35.6,28.8-34.4s63.2,49.7,98.2,105.5l20.2,1.9,15.4,17.8,25.7,22.5,14.6,12.6,16.1,22.4H517.9l-5.8-14.5-14.4-11.6-8.7-2.7L478.1,354l-.8-11.8-16.1-2.1-3.4-11.7-18.7-9.6L432,285.3,421.6,275l-10.5-10.5-1.2,22.8-1.2,21.6-9.2,8.3.6,12.3,23.3,14.1,8,12.9-3.2,17.6-3,16.7H401.4s3.3-24.4-3.1-24.2c-2.7,0-6,1.4-9.9,5.2l-16.5-18.7-16,20-1.2-17.8s-9.2-10.4-15.4.6l-10.4,17.6L309,383.9s15-26.8,8.3-32.9c3-36.5-7.9-25.7-14.4-14-1.7,3.2-6.6,3.3-16.9,4.4l-8.7,24.7-10.4-1.3-2.2,12.5-10.8-2.1-5.2,10.4-10.6.4-2.4-10.5-13.2-3.4-12.9,8.3-7.3,10.4H173.7Z" transform="translate(-15.9 -12)"/><text class="f" transform="translate(38.9 887.3)">INSTITUTE OF COMPUTER SCIENCE</text></svg>